<?xml version="1.0" encoding="UTF-8" standalone="no"?>
<svg
   xmlns:dc="http://purl.org/dc/elements/1.1/"
   xmlns:cc="http://creativecommons.org/ns#"
   xmlns:rdf="http://www.w3.org/1999/02/22-rdf-syntax-ns#"
   xmlns:svg="http://www.w3.org/2000/svg"
   xmlns="http://www.w3.org/2000/svg"
   xmlns:sodipodi="http://sodipodi.sourceforge.net/DTD/sodipodi-0.dtd"
   xmlns:inkscape="http://www.inkscape.org/namespaces/inkscape"
   version="1.0"
   width="900.000000pt"
   height="900.000000pt"
   viewBox="0 0 900.000000 900.000000"
   preserveAspectRatio="xMidYMid meet"
   id="svg16"
   sodipodi:docname="start.svg"
   inkscape:version="0.92.5 (2060ec1f9f, 2020-04-08)">
  <metadata
     id="metadata22">
    <rdf:RDF>
      <cc:Work
         rdf:about="">
        <dc:format>image/svg+xml</dc:format>
        <dc:type
           rdf:resource="http://purl.org/dc/dcmitype/StillImage" />
      </cc:Work>
    </rdf:RDF>
  </metadata>
  <defs
     id="defs20" />
  <sodipodi:namedview
     pagecolor="#ffffff"
     bordercolor="#666666"
     borderopacity="1"
     objecttolerance="10"
     gridtolerance="10"
     guidetolerance="10"
     inkscape:pageopacity="0"
     inkscape:pageshadow="2"
     inkscape:window-width="1920"
     inkscape:window-height="1007"
     id="namedview18"
     showgrid="false"
     inkscape:zoom="0.39333333"
     inkscape:cx="553.8042"
     inkscape:cy="601.66932"
     inkscape:window-x="0"
     inkscape:window-y="44"
     inkscape:window-maximized="1"
     inkscape:current-layer="svg16" />
  <g
     transform="matrix(0.16451616,0,0,-0.14793702,-290.28357,1115.486)"
     id="g14"
     style="fill:#000000;stroke:none">
    <path
       d="m 2875,7470 c -9,-14 37,-195 84,-337 40,-120 109,-295 162,-411 16,-34 29,-65 29,-67 0,-7 156,-321 203,-407 179,-334 376,-619 474,-684 21,-14 49,-36 63,-49 14,-13 52,-39 85,-58 34,-20 72,-47 85,-60 14,-14 50,-39 80,-57 30,-18 73,-47 95,-64 22,-18 72,-54 110,-80 39,-26 111,-76 160,-111 50,-36 110,-77 133,-92 24,-15 67,-46 95,-68 29,-22 77,-56 107,-74 30,-18 69,-45 85,-61 17,-15 57,-43 90,-63 33,-19 69,-44 80,-54 11,-11 58,-45 105,-76 47,-32 126,-87 175,-122 50,-35 110,-77 134,-92 24,-15 67,-46 95,-68 28,-23 69,-51 91,-65 22,-13 63,-41 90,-62 28,-22 77,-57 110,-79 33,-22 92,-62 130,-89 98,-69 103,-68 99,28 -1,42 -4,120 -5,172 -3,121 -29,241 -69,320 -33,64 -124,162 -284,305 -44,39 -96,86 -116,105 -20,19 -74,69 -120,110 -46,41 -100,91 -120,110 -20,19 -71,67 -115,105 -43,39 -95,86 -115,105 -20,19 -73,69 -119,110 -46,41 -98,89 -115,105 -18,17 -70,64 -116,105 -46,41 -96,87 -110,101 -14,14 -70,65 -125,114 -55,49 -111,100 -125,114 -14,14 -63,60 -109,101 -47,41 -101,91 -121,110 -20,19 -71,67 -115,105 -43,39 -95,86 -115,105 -20,19 -71,67 -114,105 -44,39 -96,86 -116,105 -20,19 -74,69 -120,110 -46,41 -96,87 -110,101 -14,14 -72,67 -130,118 -58,51 -109,99 -113,107 -4,8 -12,14 -16,14 -5,0 -45,35 -90,78 -45,42 -111,104 -148,137 -36,33 -89,81 -116,108 -57,53 -54,51 -62,37 z"
       id="path2"
       inkscape:connector-curvature="0" />
    <path
       d="m 3156,5811 c -15,-23 145,-412 269,-656 87,-171 171,-318 241,-424 24,-36 50,-75 57,-85 33,-52 170,-217 219,-266 124,-123 186,-161 438,-273 80,-35 244,-114 365,-174 121,-60 274,-134 340,-164 66,-29 190,-89 275,-132 85,-43 229,-113 320,-154 91,-42 223,-104 293,-140 70,-35 132,-61 137,-58 13,8 5,295 -10,359 -23,104 -75,169 -201,251 -37,24 -75,52 -85,63 -11,10 -46,35 -79,55 -33,19 -70,45 -81,56 -12,11 -53,40 -91,64 -38,24 -76,51 -84,59 -8,9 -47,36 -85,60 -38,25 -77,52 -85,60 -8,9 -47,36 -85,60 -38,25 -76,52 -84,59 -8,8 -53,41 -100,72 -47,31 -125,86 -175,122 -49,35 -110,77 -134,92 -24,15 -67,46 -95,68 -28,23 -69,51 -91,64 -22,13 -60,40 -85,61 -25,20 -63,46 -85,59 -22,13 -62,41 -90,62 -27,22 -79,59 -115,84 -83,57 -200,139 -315,220 -49,35 -126,89 -170,120 -44,30 -120,85 -170,120 -49,35 -110,77 -133,92 -24,15 -67,46 -95,68 -74,58 -124,87 -131,76 z"
       id="path4"
       inkscape:connector-curvature="0" />
    <path
       d="m 3442,4338 c -11,-11 -6,-23 42,-98 71,-111 104,-160 156,-230 30,-41 58,-79 62,-85 148,-203 400,-460 551,-564 110,-77 138,-87 492,-186 28,-8 84,-24 125,-35 85,-24 157,-44 232,-65 29,-8 87,-24 128,-36 41,-11 98,-27 125,-35 28,-7 79,-22 115,-33 36,-10 94,-26 130,-36 36,-10 92,-25 125,-35 33,-10 89,-25 125,-35 36,-10 92,-25 125,-35 90,-27 103,-29 113,-16 5,6 8,58 6,116 -6,155 -19,177 -154,248 -58,31 -202,99 -320,152 -118,54 -271,125 -339,159 -68,35 -171,83 -229,107 -58,25 -175,80 -261,123 -86,43 -205,100 -266,126 -60,26 -172,79 -248,117 -76,38 -219,104 -317,148 -98,44 -243,111 -321,150 -173,87 -184,91 -197,78 z"
       id="path6"
       inkscape:connector-curvature="0" />
    <path
       d="m 4602,3003 c -101,-20 -195,-74 -357,-204 -82,-66 -151,-124 -153,-129 -5,-14 81,-40 148,-43 190,-10 407,55 580,173 62,43 160,135 160,150 0,14 -37,27 -123,44 -105,21 -184,24 -255,9 z"
       id="path8"
       inkscape:connector-curvature="0" />
    <path
       d="m 5144,2891 c -37,-17 -152,-138 -322,-339 -20,-24 -53,-61 -72,-82 -19,-21 -53,-59 -75,-85 -38,-45 -68,-79 -141,-158 -53,-57 -69,-86 -55,-100 17,-17 187,-21 268,-7 115,20 257,76 372,147 94,59 264,215 362,334 47,57 130,190 124,199 -3,4 -25,13 -50,19 -25,6 -70,22 -100,36 -125,55 -240,68 -311,36 z"
       id="path10"
       inkscape:connector-curvature="0" />
    <path
       d="m 5747,2747 c -17,-13 -57,-80 -100,-167 -83,-165 -230,-428 -322,-575 -35,-55 -96,-161 -138,-235 -41,-74 -88,-159 -106,-188 -17,-29 -31,-58 -31,-64 0,-15 96,-1 200,29 81,23 227,88 280,124 38,26 231,153 249,164 9,6 20,16 24,23 4,6 12,12 18,12 9,0 91,58 142,100 58,48 108,102 125,136 27,54 36,169 23,300 -6,60 -13,141 -16,179 -7,89 -20,102 -151,143 -143,44 -163,46 -197,19 z"
       id="path12"
       inkscape:connector-curvature="0" />
  </g>
  <path
     style="fill:#ff0000;stroke-width:2.97470045"
     d="M 672.22904,500.86754 C 648.9371,486.33556 574.8264,439.66316 507.53858,397.1511 440.25077,354.639 378.13895,315.56564 369.5123,310.32143 337.68668,290.9743 323.65393,277.8994 299.53591,245.12156 256.48051,186.60662 210.31997,98.546445 190.83626,37.755952 186.40856,23.941224 183.1595,12.302313 183.61612,11.89171 c 0.88511,-0.795921 410.57094,335.30133 475.38371,389.99435 21.19187,17.88302 41.33839,37.46351 44.77003,43.51225 7.10854,12.5297 13.26103,48.15763 11.79584,68.3076 l -0.9877,13.58338 z"
     id="path24"
     inkscape:connector-curvature="0" />
  <path
     style="fill:#ff0000;stroke-width:2.97470045"
     d="M 604.78437,581.56453 C 361.80765,476.76622 382.2314,486.4506 358.43326,464.75146 c -27.57871,-25.1463 -56.52303,-64.49698 -83.96493,-114.15285 -20.34434,-36.8129 -46.05262,-91.32843 -43.92063,-93.13558 0.51608,-0.43745 41.87567,25.15386 91.9102,56.86958 50.03453,31.71572 118.4987,75.03082 152.1426,96.25577 78.49674,49.52125 178.39617,112.89821 201.60645,127.90065 33.54679,21.68359 37.88504,29.79363 36.19187,67.65814 l -0.95778,21.41946 z"
     id="path26"
     inkscape:connector-curvature="0" />
  <path
     style="fill:#ff0000;stroke-width:2.97470045"
     d="M 683.2084,693.31192 C 672.85642,690.4894 613.56787,675.3212 551.45604,659.60481 489.34422,643.88842 432.87892,628.54978 425.97761,625.51892 c -17.84914,-7.83879 -52.19192,-34.93076 -79.07949,-62.38339 -22.6054,-23.08047 -72.38823,-85.90033 -69.71454,-87.97126 1.42609,-1.10457 36.9107,13.54445 186.43755,76.9666 50.03453,21.22228 121.16179,51.20152 158.06058,66.62056 38.60786,16.13322 71.56792,31.76858 77.63978,36.83022 9.76624,8.14132 10.55107,10.08221 10.55107,26.0927 0,19.56952 0.93334,19.16216 -26.66416,11.63757 z"
     id="path28"
     inkscape:connector-curvature="0" />
  <path
     style="fill:#ff0000;stroke-width:2.97470045"
     d="m 388.62624,721.96324 c -2.5954,-3.77624 39.28836,-34.02198 58.98823,-42.59749 7.99967,-3.4823 19.81448,-6.96628 26.25513,-7.74213 11.09498,-1.33654 46.94712,3.08719 50.43435,6.223 4.03087,3.62466 -22.28189,22.57045 -46.13481,33.21812 -24.33189,10.86147 -28.4507,11.79 -56.84885,12.81567 -19.68162,0.71085 -31.35842,0.0261 -32.69405,-1.91717 z"
     id="path30"
     inkscape:connector-curvature="0" />
  <path
     style="fill:#ff0000;stroke-width:2.97470045"
     d="m 448.08954,797.34872 c 4.12495,-6.20819 66.55276,-69.78961 88.97573,-90.61995 19.56789,-18.17804 21.16263,-19.04062 35.20198,-19.04062 13.34163,0 47.2367,9.02312 54.13604,14.41141 4.88061,3.8117 -16.57134,29.84585 -43.09087,52.29519 -18.88094,15.98312 -32.51098,24.64821 -52.03147,33.0782 -23.94088,10.33897 -29.26164,11.53273 -56.10901,12.58861 -24.56416,0.96608 -29.21715,0.49999 -27.0824,-2.71284 z"
     id="path32"
     inkscape:connector-curvature="0" />
  <path
     style="fill:#aa0000;stroke-width:2.97470045"
     d="m 544.84473,886.33032 c 1.04627,-2.45181 12.75966,-21.17508 26.02973,-41.60729 45.9357,-70.72815 53.28078,-82.40061 68.12226,-108.25657 8.30355,-14.46599 17.44569,-26.69771 20.63437,-27.60776 3.14891,-0.89872 15.38487,1.26917 27.19103,4.8175 20.94734,6.29572 21.51838,6.72401 23.64578,17.73486 1.19904,6.20582 2.26142,24.32278 2.36084,40.2599 l 0.18079,28.97656 -12.92824,12.61206 c -7.11054,6.93663 -18.05069,15.40954 -24.31146,18.82869 -6.26076,3.41916 -12.08902,7.0136 -12.95167,7.98766 -3.70033,4.17819 -40.79393,25.2698 -58.79637,33.43191 -16.84979,7.63952 -49.35665,17.28028 -58.26588,17.28028 -1.54743,0 -1.95746,-2.00601 -0.91118,-4.4578 z"
     id="path34"
     inkscape:connector-curvature="0" />
  <path
     style="fill:#aa0000;stroke-width:2.97470045"
     d="m 451.38704,798.15714 c -1.59311,-2.31796 71.44385,-77.41595 95.0295,-97.71113 10.45534,-8.99671 15.36691,-11.21923 24.79357,-11.21923 15.08139,0 51.02099,9.73657 52.99249,14.35646 2.28276,5.34929 -14.60101,25.61018 -38.78475,46.54255 -24.64455,21.33122 -45.45568,33.98848 -68.31521,41.54907 -17.08645,5.6512 -63.16299,10.19624 -65.7156,6.48228 z"
     id="path36"
     inkscape:connector-curvature="0" />
  <path
     style="fill:#aa0000;stroke-width:2.97470045"
     d="m 398.30025,721.6171 -8.8556,-1.48937 8.8556,-7.25903 c 32.10262,-26.31486 59.56268,-39.29705 83.02974,-39.25367 24.06637,0.0445 40.32493,2.94182 40.32493,7.18607 0,5.29367 -43.95519,30.93059 -61.72826,36.00309 -16.56355,4.72728 -47.68431,7.15777 -61.62641,4.81291 z"
     id="path38"
     inkscape:connector-curvature="0" />
  <path
     style="fill:#aa0000;stroke-width:2.97470045"
     d="M 647.13336,683.23657 C 402.9699,619.81166 420.77531,625.96041 377.92568,590.27091 c -26.7347,-22.26736 -90.02024,-94.30239 -96.79444,-110.17668 -1.95709,-4.58611 -5.20059,-5.88986 193.46926,77.76549 171.33874,72.14684 219.40067,93.64222 227.60611,101.79542 4.07978,4.0538 5.88777,10.24265 5.97394,20.44911 0.10636,12.60989 -0.74497,14.71397 -6.15039,15.19938 -3.45065,0.30988 -28.15423,-5.1203 -54.8968,-12.06706 z"
     id="path40"
     inkscape:connector-curvature="0" />
  <path
     style="fill:#aa0000;stroke-width:2.97470045"
     d="M 576.55173,568.09775 C 380.72837,483.34455 377.80357,481.91272 355.11224,459.69227 330.59049,435.67941 303.61413,398.89957 280.2822,357.66822 258.91795,319.91409 232.14521,264.4406 234.33721,262.46951 c 1.68263,-1.51308 -2.208,-3.93922 262.22202,163.51799 104.38236,66.10287 194.42161,124.52338 200.08722,129.82332 11.78126,11.02094 15.79409,27.20583 13.22611,53.34466 l -1.56847,15.96527 z"
     id="path42"
     inkscape:connector-curvature="0" />
  <path
     style="fill:#aa0000;stroke-width:2.97470045"
     d="M 529.49732,409.75055 C 429.42827,346.75122 342.18064,290.53302 335.61369,284.82122 302.12086,255.68978 242.9511,161.11558 209.98985,84.029889 198.73333,57.704572 185.30242,18.83783 186.94993,17.356355 c 1.1033,-0.992107 84.21573,66.508392 279.74878,227.200435 180.0363,147.95658 224.81833,186.08445 233.48054,198.78758 8.15899,11.9652 13.45051,38.65554 12.2527,61.80231 l -0.99091,19.14813 z"
     id="path44"
     inkscape:connector-curvature="0" />
</svg>
